<svg xmlns="http://www.w3.org/2000/svg" viewBox="0 0 128 128">
  <defs>
    <linearGradient id="g" x1="0" x2="1" y1="0" y2="1">
      <stop offset="0%" stop-color="#ffb703" />
      <stop offset="100%" stop-color="#fb8500" />
    </linearGradient>
  </defs>
  <rect width="128" height="128" rx="32" fill="#050505" />
  <path d="M38 34h52a12 12 0 0 1 12 12v36a12 12 0 0 1-12 12H62l-24 24V46a12 12 0 0 1 12-12Z" fill="url(#g)" opacity="0.95" />
  <path d="M48 44h32a6 6 0 0 1 6 6v18a6 6 0 0 1-6 6H54a10 10 0 0 0-10 10v12" fill="none" stroke="#050505" stroke-width="10" stroke-linecap="round" stroke-linejoin="round" />
</svg>
